<svg width="512" height="512" viewBox="0 0 512 512" fill="none" xmlns="http://www.w3.org/2000/svg">
<circle cx="256" cy="256" r="250" fill="white"/>
<path d="M256 512C397.312 512 512 397.312 512 256C512 114.688 397.312 0 256 0C114.688 0 0 114.688 0 256C0 397.312 114.688 512 256 512ZM347.371 237.717H384.021V201.088H420.672V237.739H457.003V274.389H420.672V311.04H384.021V274.389H347.371V237.717ZM183.019 127.979C215.317 127.979 245.056 139.349 268.715 161.323L234.027 194.987C220.395 181.653 201.728 175.275 183.019 175.275C138.731 175.275 103.317 211.925 103.317 255.893C103.317 299.861 138.624 336.512 183.019 336.512C216.661 336.512 250.005 316.8 255.381 281.493h183.019V237.525H303.701C305.045 244.544 305.664 251.563 305.664 258.88C305.664 331.968 256.619 383.979 183.019 383.979V384C112 384 54.9973 326.699 54.9973 255.979C54.9973 185.259 112 127.979 183.019 127.979V127.979Z" fill="#092C34"/>
</svg>
