<svg width="177" height="221" viewBox="0 0 177 221" fill="none" xmlns="http://www.w3.org/2000/svg">
<path d="M36.6877 83.5622C41.4996 78.3329 46.636 77.9218 53.6876 78.8022C58.3858 79.3888 61.7827 81.9996 64.5675 85.8288C66.3808 88.3221 68.6475 85.8288 68.6475 85.8288C68.6475 85.8288 69.9817 71.0695 77.5597 64.2956C85.1744 57.4889 87.7466 54.9107 97.9596 55.0024C101.001 55.0296 104.233 55.0094 108.84 56.5855C113.476 58.1721 116.83 59.9629 119.719 64.2956C122.265 68.1134 122.689 72.465 123.5 76.0822C124.005 78.3278 123.5 82.2021 123.5 82.2021C123.5 82.2021 123.302 86.1029 122.82 88.5487C122.08 92.3116 120.761 95.036 118.741 98.2954C116.431 102.021 115.102 104.101 111.559 106.682C107.144 109.899 102.72 110.305 102.72 111.439C102.72 112.147 102.618 112.101 102.72 112.802C102.917 114.162 109.674 113.482 109.674 113.482C109.674 113.482 112.315 113.25 113.981 113.482C120.156 114.341 118.139 124.025 122.893 125.722C124.479 126.288 128.786 122.549 128.786 122.549C128.786 122.549 135.133 116.652 140.119 117.105C146.669 117.701 145.106 135.468 145.106 135.468C145.106 135.468 146.516 150.272 140.119 151.332C136.019 152.011 131.942 149.544 128.333 147.482C126.746 146.575 124.026 145.288 122.893 145.892C121.378 146.698 123.618 155.107 118.741 160.171C112.997 166.135 101.113 165.311 92.9007 164.255C85.3472 163.283 90.4657 163.977 82.9274 162.895C73.9474 161.605 58.9009 162.895 58.9009 162.895C58.9009 162.895 48.3199 162.668 44.9199 161.082C42.5162 159.96 40.1641 159.239 39.181 156.775C32.9985 141.282 38.0206 116.496 41.9733 115.518C45.926 114.541 52.1732 115.975 52.3999 115.518C52.714 114.885 52.7919 114.297 52.3999 113.709C51.9465 113.029 46.4606 113.265 43.1066 111.665C38.0612 109.259 35.048 106.496 33.0611 101.469C30.725 95.5575 32.3838 88.2394 36.6877 83.5622Z" fill="white"/>
</svg>
