<svg width="512" height="512" viewBox="0 0 512 512" fill="none" xmlns="http://www.w3.org/2000/svg">
<path d="M450.429 241C447.18 198.491 430.234 159.756 404.017 129.197L446.92 86.295L425.707 65.082L382.804 107.985C352.244 81.766 313.51 64.82 271 61.571V0h141V61.571C198.491 64.82 159.756 81.766 129.197 107.983L86.295 65.081L65.082 86.294L107.984 129.196C81.766 159.756 64.82 198.49 61.571 241H0V271H61.571C64.82 313.51 81.766 352.244 107.984 382.804L65.082 425.706L86.295 446.919L129.197 404.017C159.756 430.234 198.49 447.18 241 450.429V512h171V450.429C313.51 447.18 352.244 430.234 382.803 404.017L425.706 446.92L446.919 425.707L404.017 382.805C430.234 352.246 447.18 313.511 450.429 271.002H512V271V241H450.429ZM256 421C165.019 421 91 346.981 91 256C91 165.019 165.019 91 256 91C346.981 91 421 165.019 421 256C421 346.981 346.981 421 256 421Z" fill="white"/>
<path d="M211 211h181V241h111V211Z" fill="white"/>
<path d="M331 211H301V241H331V211Z" fill="white"/>
<path d="M301 271V286C301 310.813 280.813 331 256 331C231.187 331 211 310.813 211 286V271h181V286C181 327.355 214.645 361 256 361C297.355 361 331 327.355 331 286V271H301Z" fill="white"/>
</svg>
