<svg width="512" height="512" viewBox="0 0 512 512" fill="none" xmlns="http://www.w3.org/2000/svg">
<path d="M431.964 435.333C431.043 376.339 412.664 322.697 379.987 283.859C347.5 245.258 303.472 224 256 224C208.528 224 164.5 245.258 132.013 283.859C99.367 322.656 81 376.223 80.04 435.144C98.5 444.391 174.89 480 256 480C343.708 480 414.845 444.6 431.964 435.333V435.333Z" fill="white"/>
<path d="M256 208C304.601 208 344 168.601 344 120C344 71.3989 304.601 32 256 32C207.399 32 168 71.3989 168 120C168 168.601 207.399 208 256 208Z" fill="white"/>
</svg>
