<svg width="512" height="512" viewBox="0 0 512 512" fill="none" xmlns="http://www.w3.org/2000/svg">
<circle cx="256" cy="256" r="250" fill="white"/>
<path d="M256 0C114.62 0 0 114.615 0 256C0 397.385 114.62 512 256 512C397.38 512 512 397.385 512 256C512 114.615 397.38 0 256 0ZM385.857 283.687C397.789 295.341 410.412 306.31 421.123 319.168C425.869 324.857 430.342 330.739 433.746 337.354C438.607 346.788 434.218 357.132 425.774 357.693L373.328 357.682C359.783 358.803 349.003 353.34 339.916 344.08C332.661 336.7 325.931 328.817 318.943 321.185C316.089 318.053 313.082 315.104 309.499 312.784C302.35 308.132 296.138 309.557 292.042 317.026C287.867 324.626 286.914 333.049 286.516 341.508C285.945 353.874 282.215 357.106 269.807 357.688C243.293 358.929 218.136 354.906 194.754 341.539C174.127 329.749 158.162 313.108 144.25 294.268C117.16 257.54 96.4131 217.229 77.7716 175.761C73.5761 166.422 76.6455 161.425 86.9483 161.232C104.066 160.902 121.183 160.943 138.3 161.216C145.267 161.326 149.876 165.312 152.552 171.885C161.802 194.644 173.142 216.297 187.353 236.379C191.14 241.727 195.005 247.059 200.51 250.835C206.586 255.005 211.216 253.627 214.081 246.844C215.915 242.533 216.706 237.924 217.104 233.304C218.466 217.481 218.628 201.663 216.271 185.902C214.804 176.039 209.257 169.67 199.426 167.805C194.419 166.857 195.152 165.003 197.587 162.143C201.814 157.198 205.774 154.139 213.689 154.139L272.944 154.129C282.284 155.962 284.379 160.153 285.646 169.56L285.699 235.41C285.589 239.05 287.527 249.84 294.063 252.224C299.301 253.952 302.758 249.751 305.891 246.436C320.101 231.356 330.226 213.558 339.292 195.136C343.294 187.012 346.746 178.606 350.098 170.183C352.591 163.955 356.467 160.891 363.496 160.996L420.558 161.064C422.239 161.064 423.946 161.08 425.612 161.368C435.229 163.012 437.863 167.15 434.888 176.531C430.206 191.271 421.108 203.548 412.214 215.857C402.681 229.036 392.514 241.753 383.076 254.989C374.402 267.089 375.088 273.18 385.857 283.687Z" fill="#092C34"/>
</svg>
